inDegrees=no
num_controls=7
num_derivatives=13
num_iterations=172
num_multipliers=7
num_parameters=0
num_slacks=7
num_states=26
objective=5.317465
objective_accelerations=0.465483
objective_balance=0.008890
objective_effort=0.393782
objective_height=4.356783
objective_ligament=0.092526
solver_duration=1430.698471
status=Solve_Succeeded
success=true
DataType=double
version=3
OpenSimVersion=4.4-2022-07-23-0e9fedc
endheader
time	/jointset/ground_pelvis/pelvis_tilt/value	/jointset/ground_pelvis/pelvis_tx/value	/jointset/ground_pelvis/pelvis_ty/value	/jointset/hip_r/hip_flexion_r/value	/jointset/hip_r/hip_adduction_r/value	/jointset/hip_r/hip_rotation_r/value	/jointset/back/lumbar_extension/value	/jointset/patellofemoral_r/patellar_flexion_r/value	/jointset/knee_r/knee_flexion_r/value	/jointset/knee_r/knee_adduction_r/value	/jointset/knee_r/knee_rotation_r/value	/jointset/ankle_r/ankle_angle_r/value	/jointset/subtalar_r/subtalar_angle_r/value	/jointset/ground_pelvis/pelvis_tilt/speed	/jointset/ground_pelvis/pelvis_tx/speed	/jointset/ground_pelvis/pelvis_ty/speed	/jointset/hip_r/hip_flexion_r/speed	/jointset/hip_r/hip_adduction_r/speed	/jointset/hip_r/hip_rotation_r/speed	/jointset/back/lumbar_extension/speed	/jointset/patellofemoral_r/patellar_flexion_r/speed	/jointset/knee_r/knee_flexion_r/speed	/jointset/knee_r/knee_adduction_r/speed	/jointset/knee_r/knee_rotation_r/speed	/jointset/ankle_r/ankle_angle_r/speed	/jointset/subtalar_r/subtalar_angle_r/speed	/forceset/tau_hip_flexion_r	/forceset/tau_hip_adduction_r	/forceset/tau_hip_rotation_r	/forceset/tau_knee_flexion_r	/forceset/tau_ankle_angle_r	/forceset/tau_subtalar_angle_r	/forceset/tau_lumbar_extension	lambda_cid13_p0	lambda_cid14_p0	lambda_cid14_p1	lambda_cid14_p2	lambda_cid14_p3	lambda_cid14_p4	lambda_cid14_p5	/jointset/ground_pelvis/pelvis_tilt/accel	/jointset/ground_pelvis/pelvis_tx/accel	/jointset/ground_pelvis/pelvis_ty/accel	/jointset/hip_r/hip_flexion_r/accel	/jointset/hip_r/hip_adduction_r/accel	/jointset/hip_r/hip_rotation_r/accel	/jointset/back/lumbar_extension/accel	/jointset/patellofemoral_r/patellar_flexion_r/accel	/jointset/knee_r/knee_flexion_r/accel	/jointset/knee_r/knee_adduction_r/accel	/jointset/knee_r/knee_rotation_r/accel	/jointset/ankle_r/ankle_angle_r/accel	/jointset/subtalar_r/subtalar_angle_r/accel	gamma_cid13_p0	gamma_cid14_p0	gamma_cid14_p1	gamma_cid14_p2	gamma_cid14_p3	gamma_cid14_p4	gamma_cid14_p5
1	-0.1527351624671249	0.006769102755921098	0.6926001438935876	1.204508966609425	-0.2326709898413855	-0.1237275501273153	-0.7853765802029299	1.369336067464333	1.369336067464316	-0.1745329246147186	0.174532496848444	0.43626109391038	0.1873227468452909	0.06898693349388416	0.006089402719240518	0.01388646726199269	-0.09897927630215894	-0.001119183673304057	-0.00254778168864228	0.003287597893608962	-0.01666343301696964	-0.01666343301696834	0.003735611474399065	-0.0001477670393867648	0.01325797633393792	0.005033008897642072	-0.2805633551241616	0.02283577918130426	0.01654860816379222	-0.4382426653832803	-0.03288375534767189	0.01312608460577848	0.3264088807262674	-0.04297480495297286	-60.30207253082127	-6.873421352029595	3.820072126529095	8.138251011327318	-751.2083848906231	77.91642893743791	1.02912589055652	0.139437529701523	1.485505914958584	-4.466288325528972	0.286172378432864	-0.4154492026633269	0.2165314608582177	-4.52109412130174	-4.521094121301756	0.6971111283387589	-0.01652329819217976	-1.232417578312483	-0.1077643614509352	1.200392856121179e-09	-6.498907338449177e-11	1.22720447821137e-08	6.216551651511036e-09	2.539376301218361e-09	-5.945409455050449e-09	1.965466058902244e-08
1.01	-0.1519948575715575	0.006837196226868041	0.6928131492144254	1.203296805245558	-0.2326681393740075	-0.1237713474113816	-0.7853301153590651	1.368943913749526	1.368943913749521	-0.1744580110176757	0.1745299644812056	0.4363323129985824	0.1873672609042174	0.07903184093766885	0.00755431089585696	0.0287139000376132	-0.1434443689001065	0.001678121548658519	-0.006178755396102842	0.006212344748663927	-0.06176503632349323	-0.06176503632349359	0.01129552914127468	-0.0003536512365882919	0.001015765941974994	0.003863499164187318	-0.2814935589482103	0.02291113658869167	0.01659763311358047	-0.4381697369579413	-0.03322997997792679	0.01312713080738878	0.32764547908507	-0.04296610560786773	-60.45469903672782	-6.895450624903082	3.818741120532537	7.911481091695218	-752.0214399615566	77.91430221361477	0.9858440856989178	0.153771127364819	1.481255137687105	-4.435324231477844	0.2748402635312289	-0.3319818159248132	0.3614923781498819	-4.504353129015798	-4.504353129015993	0.792696372584218	-0.02185500691259235	-1.215645715118924	-0.1224818258643138	3.659194536324575e-09	2.651549091684026e-09	2.974863992639018e-08	2.761031963669066e-08	3.747100256958646e-09	-1.139985881128121e-08	4.955010840294052e-08
1.02	-0.1511553694186747	0.006920689512725862	0.6931744074987839	1.201640252054804	-0.2326376497205218	-0.1238504665047238	-0.7852481938305839	1.368100812062916	1.368100812062912	-0.1743060453866228	0.1745255264667252	0.4362820061255338	0.1873998923564953	0.08882358495783528	0.009169365701416202	0.04353705996613977	-0.1878576416800584	0.004408653548728419	-0.009612143549055173	0.01037893481654132	-0.1068530273775436	-0.1068530273775457	0.01914601827703549	-0.0005288964909295899	-0.01104736226921829	0.002656487567871839	-0.2824237627722323	0.02298649399615741	0.01664665806333347	-0.4380968085326101	-0.03357620460816529	0.01312817700915602	0.3288820774438959	-0.04296434293477032	-60.6161316376492	-6.914589474616378	3.811886132852903	7.688944300039659	-752.9768411174896	77.95118316164371	0.9784932058328667	0.1694668554900855	1.484651345539799	-4.455924361929848	0.2728177340543057	-0.3759320917617113	0.464900103422684	-4.518371670807098	-4.518371670807133	0.755225422115807	-0.01039550962006825	-1.196601142158559	-0.1152647340231269	7.495691235125722e-09	1.001091328789357e-08	5.224436239927475e-08	6.028036507624315e-08	-1.496389566444596e-09	-1.615771764632528e-08	9.344452337049914e-08
1.03	-0.1502191613482864	0.007020946079434352	0.6936838208238363	1.199540027458965	-0.2325801698579737	-0.1239629572953663	-0.7851190261840445	1.366806859400507	1.366806859400529	-0.1740741469836142	0.174519522540827	0.4361116395596851	0.1874201302917176	0.09838108129556422	0.01089327023503027	0.05833918957418577	-0.2321567507080455	0.007078662736950247	-0.01285499494204126	0.01560099545746998	-0.1519389379217412	-0.151938937921739	0.02727915400128481	-0.0006655105219798277	-0.0230282659526149	0.001372525757207642	-0.2828219842410933	0.02311623818168382	0.0167049683193224	-0.4375499612520458	-0.0342239539984963	0.01312010737340412	0.3295209647797264	-0.04297926157837043	-60.84496621539819	-6.944487599826614	3.801034160829452	7.75266561248799	-753.3155256234134	77.88813486158607	0.9388396517691568	0.1755492482328975	1.47702723744219	-4.412321458985963	0.2628069659743504	-0.2938009944599586	0.572819189319819	-4.503917961456329	-4.50391796145562	0.8491823676559778	-0.0143133046161741	-1.199182140680557	-0.1377251305218375	1.134624604636155e-08	1.741765325993111e-08	7.479130045714514e-08	9.306547457145258e-08	-6.805708101879953e-09	-2.090846841482662e-08	1.374817849416664e-07
1.04	-0.1491884859537184	0.007138781090666255	0.6943410621387698	1.196997728315693	-0.2324962470125894	-0.1241069444662211	-0.7849332459021181	1.365062004189611	1.365062004189648	-0.1737595522793345	0.1745123486836543	0.4358213945251519	0.1874269759636465	0.1077170497943436	0.0126850546060994	0.07310265794239475	-0.2762725511661467	0.009697250115903522	-0.01591141959074134	0.02170146189406594	-0.1970335370751499	-0.1970335370751431	0.03568527852859208	-0.0007628827437747051	-0.03502305600602604	-2.196509080869498e-05	-0.2832202057099694	0.02324598236720211	0.01676327857513687	-0.4370031139715062	-0.03487170338882884	0.01311203773764031	0.3301598521155442	-0.04300076039431434	-61.08256665909215	-6.971292605776763	3.784402397573944	7.818552182276604	-753.7979953248529	77.86469803680608	0.9341876380429343	0.1830428229811131	1.476919097572401	-4.419262647952717	0.2625333722005795	-0.3386467429045248	0.640581262556127	-4.520109392649319	-4.520109392649308	0.8098231827274063	-0.002547147768958202	-1.199378416161443	-0.1373705414935758	1.497966721354055e-08	2.357470135948054e-08	9.595254940173938e-08	1.264138464562401e-07	-9.737312120533386e-09	-2.526007978994746e-08	1.781762739398695e-07
1.05	-0.1480655388556735	0.007274910719949963	0.6951456815389436	1.194015250504664	-0.2323864194105931	-0.1242806875376523	-0.7846820712997127	1.36286627050289	1.362866270502896	-0.173359663062934	0.174504433028803	0.4354111726174903	0.1874193057454566	0.1168353161514745	0.01455598523606699	0.08780825169190541	-0.3201840378432891	0.01225793479564175	-0.01881538400167434	0.02868238331842311	-0.2421032519768462	-0.2421032519768475	0.0443268817444876	-0.0008127697437153008	-0.04701954549838522	-0.00153111009260255	-0.2833181930903038	0.0232960123346912	0.01686810208866589	-0.436281217004594	-0.03522270132361984	0.01307557269145426	0.330570477616084	-0.04302373424243747	-61.19960825422648	-6.992081569356321	3.769965441706348	7.776703882558502	-753.9045182094459	77.80820675645923	0.8950945386159042	0.1913827330849157	1.465427989912655	-4.371239600849205	0.2513079848644796	-0.2629858693971598	0.7491862920382306	-4.498914053009293	-4.498914053010473	0.8964773194532379	-0.005046806223605736	-1.199516729372806	-0.1605038089771266	1.860630295434277e-08	2.969269658801473e-08	1.170704955615437e-07	1.59779820290702e-07	-1.25946125605374e-08	-2.959921805902516e-08	2.187663012951674e-07
1.06	-0.1468525194132456	0.007430202565549509	0.6960969665718667	1.190594828242219	-0.2322512905679984	-0.1244828131690324	-0.7843566197411305	1.360220137364336	1.360220137364285	-0.1728723281286668	0.1744962510379283	0.4348810393121838	0.1873959806113579	0.1257315186713151	0.01651749786926713	0.102435784492268	-0.3638614414505995	0.01475749823553806	-0.02158793158098071	0.036556853129282	-0.2871134274417243	-0.2871134274417337	0.05317442209768299	-0.0008161499483334666	-0.05900533553473077	-0.00315294827259019	-0.283416180470605	0.02334604230219153	0.01697292560188347	-0.4355593200377205	-0.03557369925841284	0.01303910764529578	0.3309811031166555	-0.0430527491013678	-61.32541557560234	-7.009611765789153	3.749533110457134	7.736087447600414	-754.1562195783981	77.79180120957822	0.889774870584829	0.2011592236276422	1.461306907742789	-4.372446033986336	0.2503091242321875	-0.3123633765792082	0.8192909398564525	-4.508201505285685	-4.50820150528569	0.851010610187388	0.006754211295553709	-1.197238524958691	-0.1599091771323435	2.184042083842224e-08	3.495907945781376e-08	1.337703329283436e-07	1.894421485505796e-07	-1.510118868685921e-08	-3.336711625755312e-08	2.520638296025356e-07
